<svg width="19" height="19" viewBox="0 0 19 19" fill="none" xmlns="http://www.w3.org/2000/svg">
<g id="map-pin-2-line 1" opacity="0.4" clip-path="url(#clip0_1_961)">
<path id="Vector" d="M9.5 18.7846L4.46184 13.7465C3.4654 12.75 2.78681 11.4805 2.5119 10.0984C2.23699 8.71625 2.37809 7.28365 2.91737 5.98173C3.45665 4.67982 4.36988 3.56705 5.54157 2.78415C6.71327 2.00125 8.09081 1.58337 9.5 1.58337C10.9092 1.58337 12.2867 2.00125 13.4584 2.78415C14.6301 3.56705 15.5434 4.67982 16.0826 5.98173C16.6219 7.28365 16.763 8.71625 16.4881 10.0984C16.2132 11.4805 15.5346 12.75 14.5382 13.7465L9.5 18.7846ZM13.4188 12.6271C14.1937 11.852 14.7214 10.8646 14.9352 9.78963C15.149 8.71467 15.0392 7.60045 14.6198 6.58788C14.2003 5.5753 13.49 4.70985 12.5787 4.10095C11.6674 3.49204 10.596 3.16705 9.5 3.16705C8.40399 3.16705 7.33259 3.49204 6.42128 4.10095C5.50997 4.70985 4.79968 5.5753 4.38022 6.58788C3.96077 7.60045 3.851 8.71467 4.06478 9.78963C4.27856 10.8646 4.80629 11.852 5.58125 12.6271L9.5 16.5458L13.4188 12.6271ZM9.5 10.2916C9.08008 10.2916 8.67735 10.1248 8.38042 9.8279C8.08348 9.53097 7.91667 9.12824 7.91667 8.70831C7.91667 8.28839 8.08348 7.88566 8.38042 7.58873C8.67735 7.29179 9.08008 7.12498 9.5 7.12498C9.91993 7.12498 10.3227 7.29179 10.6196 7.58873C10.9165 7.88566 11.0833 8.28839 11.0833 8.70831C11.0833 9.12824 10.9165 9.53097 10.6196 9.8279C10.3227 10.1248 9.91993 10.2916 9.5 10.2916Z" fill="black"/>
</g>
<defs>
<clipPath id="clip0_1_961">
<rect width="19" height="19" fill="white"/>
</clipPath>
</defs>
</svg>
